<svg id="visual" viewBox="0 0 900 600" width="900" height="600" xmlns="http://www.w3.org/2000/svg" xmlns:xlink="http://www.w3.org/1999/xlink" version="1.1"><path d="M0 160L7.2 166C14.3 172 28.7 184 43 215C57.3 246 71.7 296 86 298.8C100.3 301.7 114.7 257.3 128.8 236.7C143 216 157 219 171.2 242.8C185.3 266.7 199.7 311.3 214 323.5C228.3 335.7 242.7 315.3 257 287.5C271.3 259.7 285.7 224.3 300 221.8C314.3 219.3 328.7 249.7 343 260.2C357.3 270.7 371.7 261.3 386 257.7C400.3 254 414.7 256 428.8 238.7C443 221.3 457 184.7 471.2 194.7C485.3 204.7 499.7 261.3 514 272.3C528.3 283.3 542.7 248.7 557 246.8C571.3 245 585.7 276 600 284.2C614.3 292.3 628.7 277.7 643 281.5C657.3 285.3 671.7 307.7 686 301.2C700.3 294.7 714.7 259.3 728.8 251.5C743 243.7 757 263.3 771.2 275C785.3 286.7 799.7 290.3 814 273.8C828.3 257.3 842.7 220.7 857 204C871.3 187.3 885.7 190.7 892.8 192.3L900 194L900 0L892.8 0C885.7 0 871.3 0 857 0C842.7 0 828.3 0 814 0C799.7 0 785.3 0 771.2 0C757 0 743 0 728.8 0C714.7 0 700.3 0 686 0C671.7 0 657.3 0 643 0C628.7 0 614.3 0 600 0C585.7 0 571.3 0 557 0C542.7 0 528.3 0 514 0C499.7 0 485.3 0 471.2 0C457 0 443 0 428.8 0C414.7 0 400.3 0 386 0C371.7 0 357.3 0 343 0C328.7 0 314.3 0 300 0C285.7 0 271.3 0 257 0C242.7 0 228.3 0 214 0C199.7 0 185.3 0 171.2 0C157 0 143 0 128.8 0C114.7 0 100.3 0 86 0C71.7 0 57.3 0 43 0C28.7 0 14.3 0 7.2 0L0 0Z" fill="#0066FF" stroke-linecap="round" stroke-linejoin="miter"></path></svg>