<svg id="visual" viewBox="0 0 900 600" width="900" height="600" xmlns="http://www.w3.org/2000/svg" xmlns:xlink="http://www.w3.org/1999/xlink" version="1.1"><rect x="0" y="0" width="900" height="600" fill="#010310"></rect><path d="M596 0L570.7 11.2C545.3 22.3 494.7 44.7 447.5 66.8C400.3 89 356.7 111 324.8 133.2C293 155.3 273 177.7 258.7 200C244.3 222.3 235.7 244.7 264.8 266.8C294 289 361 311 370 333.2C379 355.3 330 377.7 350.5 400C371 422.3 461 444.7 476.7 466.8C492.3 489 433.7 511 445.8 533.2C458 555.3 541 577.7 582.5 588.8L624 600L0 600L0 588.8C0 577.7 0 555.3 0 533.2C0 511 0 489 0 466.8C0 444.7 0 422.3 0 400C0 377.7 0 355.3 0 333.2C0 311 0 289 0 266.8C0 244.7 0 222.3 0 200C0 177.7 0 155.3 0 133.2C0 111 0 89 0 66.8C0 44.7 0 22.3 0 11.2L0 0Z" fill="#fa7268"></path><path d="M495 0L481.2 11.2C467.3 22.3 439.7 44.7 409.7 66.8C379.7 89 347.3 111 311.8 133.2C276.3 155.3 237.7 177.7 248 200C258.3 222.3 317.7 244.7 363.8 266.8C410 289 443 311 408.3 333.2C373.7 355.3 271.3 377.7 226 400C180.7 422.3 192.3 444.7 251 466.8C309.7 489 415.3 511 408.7 533.2C402 555.3 283 577.7 223.5 588.8L164 600L0 600L0 588.8C0 577.7 0 555.3 0 533.2C0 511 0 489 0 466.8C0 444.7 0 422.3 0 400C0 377.7 0 355.3 0 333.2C0 311 0 289 0 266.8C0 244.7 0 222.3 0 200C0 177.7 0 155.3 0 133.2C0 111 0 89 0 66.8C0 44.7 0 22.3 0 11.2L0 0Z" fill="#f16367"></path><path d="M238 0L206.2 11.2C174.3 22.3 110.7 44.7 137.3 66.8C164 89 281 111 328.8 133.2C376.7 155.3 355.3 177.7 364.5 200C373.7 222.3 413.3 244.7 420.8 266.8C428.3 289 403.7 311 351.8 333.2C300 355.3 221 377.7 188.7 400C156.3 422.3 170.7 444.7 175.5 466.8C180.3 489 175.7 511 180.8 533.2C186 555.3 201 577.7 208.5 588.8L216 600L0 600L0 588.8C0 577.7 0 555.3 0 533.2C0 511 0 489 0 466.8C0 444.7 0 422.3 0 400C0 377.7 0 355.3 0 333.2C0 311 0 289 0 266.8C0 244.7 0 222.3 0 200C0 177.7 0 155.3 0 133.2C0 111 0 89 0 66.8C0 44.7 0 22.3 0 11.2L0 0Z" fill="#e85467"></path><path d="M103 0L116.7 11.2C130.3 22.3 157.7 44.7 198 66.8C238.3 89 291.7 111 270.8 133.2C250 155.3 155 177.7 136.5 200C118 222.3 176 244.7 185.3 266.8C194.7 289 155.3 311 132 333.2C108.7 355.3 101.3 377.7 128.7 400C156 422.3 218 444.7 259.5 466.8C301 489 322 511 286.2 533.2C250.3 555.3 157.7 577.7 111.3 588.8L65 600L0 600L0 588.8C0 577.7 0 555.3 0 533.2C0 511 0 489 0 466.8C0 444.7 0 422.3 0 400C0 377.7 0 355.3 0 333.2C0 311 0 289 0 266.8C0 244.7 0 222.3 0 200C0 177.7 0 155.3 0 133.2C0 111 0 89 0 66.8C0 44.7 0 22.3 0 11.2L0 0Z" fill="#de4467"></path><path d="M276 0L238.5 11.2C201 22.3 126 44.7 112 66.8C98 89 145 111 171.5 133.2C198 155.3 204 177.7 209.8 200C215.7 222.3 221.3 244.7 193.7 266.8C166 289 105 311 77.3 333.2C49.7 355.3 55.3 377.7 63.5 400C71.7 422.3 82.3 444.7 102.3 466.8C122.3 489 151.7 511 185 533.2C218.3 555.3 255.7 577.7 274.3 588.8L293 600L0 600L0 588.8C0 577.7 0 555.3 0 533.2C0 511 0 489 0 466.8C0 444.7 0 422.3 0 400C0 377.7 0 355.3 0 333.2C0 311 0 289 0 266.8C0 244.7 0 222.3 0 200C0 177.7 0 155.3 0 133.2C0 111 0 89 0 66.8C0 44.7 0 22.3 0 11.2L0 0Z" fill="#d23467"></path><path d="M70 0L74.7 11.2C79.3 22.3 88.7 44.7 109.3 66.8C130 89 162 111 151.2 133.2C140.3 155.3 86.7 177.7 67 200C47.3 222.3 61.7 244.7 70.2 266.8C78.7 289 81.3 311 87 333.2C92.7 355.3 101.3 377.7 109.2 400C117 422.3 124 444.7 126.3 466.8C128.7 489 126.3 511 116.2 533.2C106 555.3 88 577.7 79 588.8L70 600L0 600L0 588.8C0 577.7 0 555.3 0 533.2C0 511 0 489 0 466.8C0 444.7 0 422.3 0 400C0 377.7 0 355.3 0 333.2C0 311 0 289 0 266.8C0 244.7 0 222.3 0 200C0 177.7 0 155.3 0 133.2C0 111 0 89 0 66.8C0 44.7 0 22.3 0 11.2L0 0Z" fill="#c62368"></path></svg>